<svg width="512" height="512" viewBox="0 0 512 512" fill="none" xmlns="http://www.w3.org/2000/svg">
  <!-- Background: Camera Lens/Shutter Theme -->
  <circle cx="256" cy="256" r="240" fill="#1a1a2e" stroke="#e94560" stroke-width="20"/>
  
  <!-- Shutter Blades (Stylized) -->
  <path d="M256 500C390.75 500 500 390.75 500 256C500 121.25 390.75 12 256 12C121.25 12 12 121.25 12 256C12 390.75 121.25 500 256 500Z" fill="url(#grad1)" opacity="0.8"/>
  <circle cx="256" cy="256" r="180" fill="#16213e" stroke="#0f3460" stroke-width="10"/>
  
  <!-- Shutter Lines -->
  <path d="M256 76L320 200" stroke="#e94560" stroke-width="5" stroke-linecap="round"/>
  <path d="M436 256L312 280" stroke="#e94560" stroke-width="5" stroke-linecap="round"/>
  <path d="M256 436L192 312" stroke="#e94560" stroke-width="5" stroke-linecap="round"/>
  <path d="M76 256L200 232" stroke="#e94560" stroke-width="5" stroke-linecap="round"/>
  
  <!-- Inner Lens Reflection -->
  <circle cx="256" cy="256" r="100" fill="#0f3460" opacity="0.9"/>
  <path d="M300 200 A 70 70 0 0 1 320 256" stroke="white" stroke-width="8" stroke-linecap="round" opacity="0.5"/>
  
  <!-- Speeding Car Icon (Stylized Silhouette) -->
  <path d="M150 280 L200 260 L310 260 L360 280 L370 300 L140 300 Z" fill="#e94560"/>
  <path d="M210 260 L230 230 L280 230 L300 260" fill="#e94560"/>
  <!-- Wheels -->
  <circle cx="180" cy="300" r="25" fill="#black" stroke="#fff" stroke-width="3"/>
  <circle cx="330" cy="300" r="25" fill="#black" stroke="#fff" stroke-width="3"/>
  
  <!-- Speed Lines -->
  <path d="M100 270 H60" stroke="#e94560" stroke-width="8" stroke-linecap="round"/>
  <path d="M120 290 H40" stroke="#e94560" stroke-width="8" stroke-linecap="round"/>
  <path d="M110 250 H70" stroke="#e94560" stroke-width="8" stroke-linecap="round"/>

  <!-- Flash Effect -->
  <path d="M380 180 L400 140 L430 145 L415 175 Z" fill="#fff" opacity="0.9">
    <animate attributeName="opacity" values="0.9;0.2;0.9" dur="1s" repeatCount="indefinite" />
  </path>

  <!-- Text: LOGO -->
  <!-- Assuming no text requested, but if needed, can add here. Keeping it icon-focused. -->

  <!-- Gradients -->
  <defs>
    <linearGradient id="grad1" x1="0%" y1="0%" x2="100%" y2="100%">
      <stop offset="0%" style="stop-color:#16213e;stop-opacity:1" />
      <stop offset="100%" style="stop-color:#0f3460;stop-opacity:1" />
    </linearGradient>
  </defs>
</svg>
